HIERARCHY
ROOT Character1_Hips
{
  OFFSET 0.000000 0.000000 0.000000
  CHANNELS 6 Xposition Yposition Zposition Zrotation Xrotation Yrotation
  JOINT Character1_Spine
  {
    OFFSET 0.000000 0.000000 0.000000
    CHANNELS 3 Zrotation Xrotation Yrotation
    JOINT Character1_Spine1
    {
      OFFSET -0.159647 12.118038 -0.624335
      CHANNELS 3 Zrotation Xrotation Yrotation
      JOINT Character1_LeftShoulder
      {
        OFFSET 0.043845 24.307200 0.378636
        CHANNELS 3 Zrotation Xrotation Yrotation
        JOINT Character1_LeftArm
        {
          OFFSET 18.150765 8.164377 -0.209994
          CHANNELS 3 Zrotation Xrotation Yrotation
          JOINT Character1_LeftForeArm
          {
            OFFSET 30.911856 -0.000000 -0.000000
            CHANNELS 3 Zrotation Xrotation Yrotation
            JOINT Character1_LeftHand
            {
              OFFSET 17.444607 -0.000000 -0.000000
              CHANNELS 3 Zrotation Xrotation Yrotation
              End Site
              {
                OFFSET 8.722304 -0.000000 -0.000000
              }
            }
          }
        }
      }
      JOINT Character1_RightShoulder
      {
        OFFSET 0.043845 24.307200 0.378636
        CHANNELS 3 Zrotation Xrotation Yrotation
        JOINT Character1_RightArm
        {
          OFFSET -19.117327 7.275927 -0.400367
          CHANNELS 3 Zrotation Xrotation Yrotation
          JOINT Character1_RightForeArm
          {
            OFFSET -29.022717 -0.000000 -0.000000
            CHANNELS 3 Zrotation Xrotation Yrotation
            JOINT Character1_RightHand
            {
              OFFSET -18.940780 -0.000000 -0.000000
              CHANNELS 3 Zrotation Xrotation Yrotation
              End Site
              {
                OFFSET -9.470362 -0.000000 -0.000000
              }
            }
          }
        }
      }
      JOINT Character1_Neck
      {
        OFFSET 0.043845 24.307200 0.378636
        CHANNELS 3 Zrotation Xrotation Yrotation
        JOINT Character1_Head
        {
          OFFSET -0.045498 21.428801 -0.982541
          CHANNELS 3 Zrotation Xrotation Yrotation
          End Site
          {
            OFFSET 0.179810 10.843468 -0.535288
          }
        }
      }
    }
  }
  JOINT Character1_RightUpLeg
  {
    OFFSET -9.266443 -10.474173 3.905763
    CHANNELS 3 Zrotation Xrotation Yrotation
    JOINT Character1_RightLeg
    {
      OFFSET -13.649050 -37.500488 0.000000
      CHANNELS 3 Zrotation Xrotation Yrotation
      JOINT Character1_RightFoot
      {
        OFFSET -15.837653 -43.513629 0.000000
        CHANNELS 3 Zrotation Xrotation Yrotation
        JOINT Character1_RightToeBase
        {
          OFFSET -1.077978 -2.961728 12.722659
          CHANNELS 3 Zrotation Xrotation Yrotation
          End Site
          {
            OFFSET -0.000000 -0.000000 6.566352
          }
        }
      }
    }
  }
  JOINT Character1_LeftUpLeg
  {
    OFFSET 9.869701 -10.474183 3.905765
    CHANNELS 3 Zrotation Xrotation Yrotation
    JOINT Character1_LeftLeg
    {
      OFFSET 13.546829 -37.219639 0.000000
      CHANNELS 3 Zrotation Xrotation Yrotation
      JOINT Character1_LeftFoot
      {
        OFFSET 15.926881 -43.758782 0.000000
        CHANNELS 3 Zrotation Xrotation Yrotation
        JOINT Character1_LeftToeBase
        {
          OFFSET 0.929407 -2.553526 12.806656
          CHANNELS 3 Zrotation Xrotation Yrotation
          End Site
          {
            OFFSET 0.000000 -0.000000 6.574988
          }
        }
      }
    }
  }
}
MOTION
Frames:	6
Frame Time:	0.00833333
67.884604 100.419747 -60.090756 2.462457 3.784106 -48.872250 0.364355 4.223854 0.160397 2.293193 0.874286 0.252125 -0.000000 0.000000 -0.000000 -85.732321 40.715742 5.198783 20.864948 -7.273594 -38.089985 0.000000 -17.519700 0.000000 -0.000000 0.000000 -0.000000 86.602348 21.211208 -5.845811 -13.726024 -2.964459 24.266412 0.000000 -2.115310 0.000000 -5.817770 -6.683626 -2.898576 1.249346 8.202497 -2.219254 26.762309 -21.699683 9.833895 2.542009 26.853714 -10.619337 -2.044891 -14.091350 -7.487778 0.004439 -1.182113 0.430319 -19.712417 0.667690 0.554418 -4.992562 35.951528 15.305741 1.187904 -14.319649 2.880483 -3.348863 -30.348168 -12.303948
67.356284 100.479578 -59.880218 2.396912 3.779924 -48.775953 0.493789 4.212612 0.113737 2.332745 0.857897 0.196040 -0.000000 -0.000000 -0.000000 -85.729101 41.044607 5.217792 21.037203 -7.408361 -38.444870 0.000000 -17.563400 0.000000 -0.000000 -0.000000 -0.000000 86.553537 21.538748 -5.836524 -13.783876 -2.990569 24.373218 0.000000 -2.342600 0.000000 -5.785211 -6.688046 -2.863271 1.216194 8.179249 -2.192523 26.833058 -21.243971 9.570162 2.511727 26.709062 -10.552132 -2.079583 -14.329752 -7.421829 0.002812 -0.940927 0.342502 -19.321899 -0.543786 0.533264 -5.777209 38.141960 16.607858 1.047951 -13.209734 2.852837 -3.352344 -30.361940 -12.310838
66.833609 100.538844 -59.671373 2.437499 3.787411 -48.757825 0.577246 4.107575 0.090745 2.348580 0.816985 0.168301 -0.000000 0.000000 0.000000 -85.775690 41.344729 5.282099 21.181889 -7.522860 -38.743989 0.000000 -17.568100 0.000000 -0.000000 0.000000 0.000000 86.508756 22.169440 -5.942721 -13.925340 -3.054960 24.634660 -0.000000 -2.855020 -0.000000 -5.830718 -6.671033 -2.811510 1.219654 8.155202 -2.157639 26.864679 -20.877921 9.343884 2.475713 26.535550 -10.471762 -2.105182 -14.573781 -7.303390 0.002043 -0.802067 0.291949 -19.031810 -1.913246 0.469395 -6.662824 40.343226 18.007506 0.948372 -12.016652 3.071284 -3.590677 -31.281864 -12.775976
66.329560 100.601498 -59.456320 2.542773 3.810187 -48.791612 0.674909 3.946014 0.102997 2.330799 0.770765 0.186682 -0.000000 0.000000 0.000000 -85.788858 41.662948 5.327731 21.338896 -7.648471 -39.069673 -0.000000 -17.465900 0.000000 -0.000000 0.000000 0.000000 86.495327 22.347309 -5.915901 -14.011808 -3.094700 24.794653 0.000000 -2.681250 0.000000 -5.872912 -6.705492 -2.781723 1.231913 8.157742 -2.136367 26.890878 -20.554793 9.215121 2.439041 26.357186 -10.389420 -2.147350 -14.792394 -7.299266 0.003204 -1.004318 0.365582 -18.831205 -3.355014 0.319398 -7.655571 42.534901 19.507203 0.856081 -10.910795 3.276592 -3.522501 -31.023180 -12.644189
65.848653 100.653427 -59.265538 2.488912 3.795171 -48.639817 0.872639 4.011677 0.064983 2.313080 0.745673 0.145985 0.000000 0.000000 -0.000000 -85.769479 41.964333 5.367421 21.490586 -7.771188 -39.385428 0.000000 -17.341600 0.000000 0.000000 0.000000 -0.000000 86.493270 22.405975 -5.834098 -14.037032 -3.106348 24.841353 0.000000 -2.314010 0.000000 -5.852561 -6.780886 -2.790263 1.215281 8.181585 -2.138627 26.931166 -20.103442 8.948476 2.400257 26.166664 -10.301769 -2.197750 -14.897644 -7.450946 0.006930 -1.476874 0.537665 -18.545042 -4.673195 0.057312 -8.760327 44.696399 21.108382 0.757193 -9.771896 3.462987 -3.328253 -30.266450 -12.263108
65.389196 100.692938 -59.108622 2.369473 3.774290 -48.432233 1.044410 4.207880 0.008723 2.332162 0.715344 0.083904 -0.000000 0.000000 -0.000000 -85.794599 42.204809 5.386386 21.612729 -7.870985 -39.640479 0.000000 -17.234000 0.000000 -0.000000 0.000000 -0.000000 86.461073 22.574406 -5.813433 -14.092901 -3.132235 24.944834 0.000000 -2.259660 0.000000 -5.861278 -6.758484 -2.788150 1.212451 8.153470 -2.135476 26.990335 -19.648216 8.601245 2.358897 25.961292 -10.207633 -2.229743 -15.014747 -7.494241 0.008745 -1.658978 0.603999 -18.201101 -6.005711 -0.205590 -9.976320 46.801316 22.805668 0.659212 -8.538957 3.741578 -3.156814 -29.572814 -11.919400
